<svg xmlns="http://www.w3.org/2000/svg" xmlns:xlink="http://www.w3.org/1999/xlink" version="1.1" x="0px" y="0px" viewBox="0 0 841.89 744.0999999999999" enable-background="new 0 0 841.89 595.28" xml:space="preserve"><path fill-rule="evenodd" clip-rule="evenodd" fill="#000000" d="M502.998,284.726c-1.199-2.11-3.443-3.417-5.874-3.417h-28.885  l-35.768-108.498c-0.919-2.768-3.502-4.64-6.416-4.64c-2.917,0-5.502,1.867-6.412,4.634l-35.877,108.504h-28.891  c-2.435,0-4.675,1.307-5.874,3.417c-1.202,2.116-1.171,4.712,0.074,6.799l71.13,118.998c1.217,2.036,3.421,3.286,5.794,3.286  c2.375,0,4.577-1.25,5.798-3.286l71.118-118.998C504.166,289.438,504.197,286.842,502.998,284.726z M426,393.891l-59.222-99.077  h26.892L426,196.462h0.049l32.329,98.352h26.843L426,393.891z"/><text x="0" y="610.28" fill="#000000" font-size="5px" font-weight="bold" font-family="'Helvetica Neue', Helvetica, Arial-Unicode, Arial, Sans-serif">Created by Ilho Byun</text><text x="0" y="615.28" fill="#000000" font-size="5px" font-weight="bold" font-family="'Helvetica Neue', Helvetica, Arial-Unicode, Arial, Sans-serif">from the Noun Project</text></svg>